<?xml version="1.0" encoding="UTF-8" standalone="no"?>
<!-- Created with Inkscape (http://www.inkscape.org/) -->

<svg
   version="1.1"
   id="svg2"
   width="512"
   height="512"
   viewBox="0 0 512 512"
   sodipodi:docname="1number_1_30802.svg"
   inkscape:version="1.2 (dc2aedaf03, 2022-05-15)"
   xmlns:inkscape="http://www.inkscape.org/namespaces/inkscape"
   xmlns:sodipodi="http://sodipodi.sourceforge.net/DTD/sodipodi-0.dtd"
   xmlns:xlink="http://www.w3.org/1999/xlink"
   xmlns="http://www.w3.org/2000/svg"
   xmlns:svg="http://www.w3.org/2000/svg">
  <defs
     id="defs6" />
  <sodipodi:namedview
     id="namedview4"
     pagecolor="#ffffff"
     bordercolor="#000000"
     borderopacity="0.25"
     inkscape:showpageshadow="2"
     inkscape:pageopacity="0.0"
     inkscape:pagecheckerboard="0"
     inkscape:deskcolor="#d1d1d1"
     showgrid="false"
     inkscape:zoom="1.0253906"
     inkscape:cx="256"
     inkscape:cy="256.97524"
     inkscape:window-width="1366"
     inkscape:window-height="704"
     inkscape:window-x="-8"
     inkscape:window-y="-8"
     inkscape:window-maximized="1"
     inkscape:current-layer="g8" />
  <g
     inkscape:groupmode="layer"
     inkscape:label="Image"
     id="g8">
    <image
       width="512"
       height="512"
       preserveAspectRatio="none"
       xlink:href="1number_1_3080.png"
       id="image10" />
    <path
       style="fill:#008080;stroke-width:0"
       d="M 87.28381,510.45071 C 72.633403,509.12633 56.972584,503.60237 42.649739,494.70718 37.445433,491.47504 23.958892,477.964 19.025492,471.04 9.9722055,458.33377 4.2488452,443.23825 1.7870529,425.57315 -0.07649065,412.2009 -0.07649065,99.799099 1.7870529,86.426852 4.2488452,68.761749 9.9722055,53.66623 19.025492,40.96 23.958892,34.036005 37.445433,20.524956 42.649739,17.292823 57.641682,7.982082 72.444536,2.9403946 89.12572,1.4636211 c 14.54568,-1.28771826 319.20288,-1.28771826 333.74856,0 16.68118,1.4767735 31.48404,6.5184609 46.47598,15.8292019 5.2043,3.232133 18.69085,16.743182 23.62425,23.667177 9.03603,12.682012 14.94107,28.265716 17.32348,45.717532 1.75667,12.8682 1.75667,325.776738 0,338.644938 -2.38241,17.45181 -8.28745,33.03551 -17.32348,45.71753 -4.9334,6.924 -18.41995,20.43504 -23.62425,23.66718 -14.99194,9.31074 -29.7948,14.35243 -46.47598,15.8292 -13.12163,1.16165 -322.66665,1.08262 -335.59047,-0.0857 z M 430.3181,471.59144 c 13.29166,-3.39944 22.9494,-9.52268 29.87067,-18.93873 6.41221,-8.7235 8.78405,-13.62048 11.31488,-23.3611 l 2.46206,-9.47599 V 256 92.184382 l -2.46206,-9.475989 C 468.8846,72.628241 466.44185,67.699316 459.68071,58.85233 452.40462,49.33153 443.61205,43.808587 430.3181,40.408566 423.16556,38.579253 417.86686,38.521905 256,38.521905 c -161.786221,0 -167.168805,0.05818 -174.307781,1.88402 -14.815054,3.789053 -24.863925,10.980765 -33.342628,23.862439 -4.857086,7.379359 -7.021395,13.159399 -8.846594,23.625864 -2.210002,12.673092 -2.210002,323.538452 0,336.211542 1.909736,10.95123 4.043734,16.3903 9.792377,24.95851 8.054683,12.00531 17.5908,18.70296 32.012834,22.48407 6.653929,1.74451 14.098942,1.82464 174.291982,1.87605 162.35691,0.0521 167.56086,-0.003 174.71791,-1.83296 z"
       id="path932" />
    <path
       style="fill:#008080;stroke-width:0"
       d="m 239.96005,376.98101 c -1.99082,-1.99083 -2.00195,-2.51374 -2.00195,-93.99942 0,-50.59861 -0.26972,-92.26718 -0.59936,-92.59682 -0.32965,-0.32965 -8.3388,3.26861 -17.7981,7.99614 -19.95699,9.97401 -20.66535,10.24123 -22.84503,8.61795 -1.76336,-1.31324 -9.81864,-34.77624 -8.9293,-37.09382 0.26323,-0.68596 13.81452,-7.70721 30.11398,-15.60279 l 29.63539,-14.35558 h 19.04924 c 18.5794,0 19.08669,0.0535 20.5674,2.16747 1.35324,1.93202 1.51816,14.67729 1.51816,117.3298 0,97.86047 -0.20775,115.44672 -1.38274,117.05538 -1.2861,1.76076 -2.91829,1.9137 -23.35424,2.18835 -21.066,0.28311 -22.054,0.21278 -23.97345,-1.70666 z"
       id="path3239" />
    <path
       style="fill:#008080;fill-opacity:1;stroke-width:0"
       d="M 83.420811,509.45234 C 72.041186,507.79446 60.507569,503.8395 48.761905,497.56755 43.207886,494.60182 38.85888,491.05711 30.690849,482.83856 16.456664,468.51631 10.358201,458.22613 5.2032875,439.83238 3.0611255,432.18872 2.6374616,428.09559 1.9226448,408.13714 0.85567868,378.34632 0.85567868,133.65368 1.9226448,103.86286 2.86063,77.673318 4.5173623,69.43537 11.875148,54.374964 17.154535,43.56876 22.324703,36.817365 33.507795,26.126259 40.897919,19.061254 44.426382,16.508766 51.807787,12.888053 63.22007,7.290123 71.099798,4.7320855 82.70188,2.8587417 c 13.636068,-2.20176398 332.96017,-2.20176398 346.59624,0 11.57929,1.869663 19.43343,4.4159902 31.01426,10.0548833 8.282,4.032635 10.45877,5.707696 20.52092,15.791149 14.76699,14.798247 21.19884,25.673332 26.33026,44.519637 3.25448,11.952792 3.72823,35.178399 3.72823,182.775589 0,151.43036 -0.42996,170.70637 -4.10049,183.83238 -5.2113,18.63596 -11.21555,28.68919 -25.958,43.46284 -10.06215,10.08346 -12.23892,11.75852 -20.52092,15.79116 -5.09562,2.48114 -12.11733,5.4284 -15.60381,6.5495 -15.5551,5.00179 -11.59193,4.90196 -189.68381,4.77842 C 163.84,510.35105 86.618222,509.91817 83.420811,509.45234 Z M 436.04804,470.47579 c 3.55061,-1.38309 8.40772,-3.65868 10.79357,-5.05689 9.65793,-5.65992 19.2447,-18.30736 23.92631,-31.56501 l 2.71018,-7.67484 V 256 85.820952 l -2.73484,-7.750366 C 464.22486,59.597795 451.72578,46.943258 433.98095,40.851044 428.80198,39.072981 422.66891,39.009524 256,39.009524 H 83.382857 l -6.524775,2.254468 C 60.983826,46.748935 47.378456,60.322611 41.893328,76.147298 38.010275,87.349968 37.784799,97.220296 37.784799,256 c 0,159.93667 0.216552,169.14035 4.235062,179.99426 7.2767,19.65422 25.197537,34.71316 43.801091,36.80622 1.877334,0.21122 79.993908,0.34037 173.592378,0.28701 l 170.17905,-0.097 6.45566,-2.51469 z"
       id="path4902" />
    <path
       style="fill:#ffffff;fill-opacity:1;stroke-width:0"
       d="m 240.6255,376.5319 c -1.76273,-1.76273 -2.6674,-45.17717 -2.6674,-128.00553 0,-32.36341 -0.29265,-58.84256 -0.65033,-58.84256 -0.35767,0 -8.86588,3.94971 -18.90713,8.77714 -10.04125,4.82743 -18.9505,8.77715 -19.79833,8.77715 -1.08245,0 -2.27188,-2.39606 -3.99401,-8.04572 -3.22541,-10.58135 -6.62206,-26.99501 -5.94921,-28.74843 0.2933,-0.76434 14.0285,-8.00099 30.52267,-16.08144 l 29.98938,-14.69174 17.98743,0.53167 c 14.84524,0.4388 18.18422,0.80081 19.114,2.07236 1.48667,2.03315 2.36648,94.53705 1.65515,174.02352 -0.43875,49.02735 -0.7575,59.06642 -1.91203,60.22095 -2.02476,2.02476 -43.36655,2.03626 -45.39019,0.0126 z"
       id="path7090" />
    <path
       style="fill:#ffffff;fill-opacity:1;stroke-width:0"
       d="m 247.91204,377.25185 c -5.58549,-0.38003 -6.23199,-0.65451 -7.18821,-3.05186 -0.69921,-1.75301 -1.36769,-32.97596 -1.99822,-93.33142 -0.52112,-49.88343 -1.11609,-90.86966 -1.32216,-91.08052 -0.46322,-0.47401 -5.71179,1.77201 -23.65729,10.12368 -7.68457,3.57632 -14.5509,6.28024 -15.25852,6.00869 -0.70763,-0.27154 -1.98904,-2.60957 -2.84759,-5.19563 -1.9995,-6.02273 -6.42347,-25.49142 -6.43502,-28.3188 -0.008,-1.86165 4.18584,-4.26587 30.21779,-17.32467 l 30.22663,-15.16304 17.55295,0.81981 c 9.65412,0.45089 17.88529,1.15212 18.29147,1.55829 1.25393,1.2539 2.0239,41.97723 2.11456,111.83851 0.0997,76.7933 -0.69263,119.24302 -2.26487,121.34803 -0.82675,1.10691 -4.40633,1.50606 -16.17785,1.80397 -8.3139,0.21041 -17.87805,0.19464 -21.25367,-0.035 z"
       id="path7161" />
  </g>
</svg>
