<?xml version="1.0" encoding="UTF-8" standalone="no"?>
<!-- Generator: Adobe Illustrator 16.0.0, SVG Export Plug-In . SVG Version: 6.00 Build 0)  -->

<svg
   version="1.1"
   id="Capa_1"
   x="0px"
   y="0px"
   width="460.492px"
   height="460.492px"
   viewBox="0 0 460.492 460.492"
   style="enable-background:new 0 0 460.492 460.492;"
   xml:space="preserve"
   sodipodi:docname="arrow-point-hand-drawn-outline-pointing-to-right-direction-svgrepo-com[1].svg"
   inkscape:version="1.2 (dc2aedaf03, 2022-05-15)"
   xmlns:inkscape="http://www.inkscape.org/namespaces/inkscape"
   xmlns:sodipodi="http://sodipodi.sourceforge.net/DTD/sodipodi-0.dtd"
   xmlns="http://www.w3.org/2000/svg"
   xmlns:svg="http://www.w3.org/2000/svg"><defs
   id="defs41" /><sodipodi:namedview
   id="namedview39"
   pagecolor="#ffffff"
   bordercolor="#000000"
   borderopacity="0.25"
   inkscape:showpageshadow="2"
   inkscape:pageopacity="0.0"
   inkscape:pagecheckerboard="0"
   inkscape:deskcolor="#d1d1d1"
   showgrid="false"
   inkscape:zoom="1.1400849"
   inkscape:cx="230.246"
   inkscape:cy="230.246"
   inkscape:window-width="1366"
   inkscape:window-height="704"
   inkscape:window-x="-8"
   inkscape:window-y="-8"
   inkscape:window-maximized="1"
   inkscape:current-layer="g4" />
<g
   id="g6">
	<g
   id="g4">
		<path
   d="m 349.574,139.747 c -6.592,-3.469 -12.279,-6.464 -16.118,-8.871 C 305.562,113.385 275.593,96.178 244.394,79.73 215.16,64.313 184.481,49.374 153.219,35.318 145.119,31.679 137.34,27.097 129.104,22.253 115.52,14.265 101.477,5.998 85.278,1.774 70.406,-2.099 58.331,0.427 50.356,8.798 39.723,19.962 39.103,38.09 39.893,54.345 c 1.333,27.121 1.655,54.857 1.97,81.684 0.152,12.901 0.308,25.796 0.559,38.682 0.478,23.737 0.731,47.469 0.983,71.196 0.66,61.388 1.34,124.857 6,187.393 0.155,2.087 0.571,4.144 1.274,6.251 1.912,12.213 11.243,20.941 22.625,20.941 3.057,0 6.178,-0.625 9.265,-1.844 59.946,-23.698 120.519,-58.711 185.194,-107.038 27.507,-20.561 55.629,-43.274 83.578,-67.512 5.134,-4.453 11.979,-9.252 19.22,-14.346 19.348,-13.568 41.274,-28.959 48.348,-49.538 2.727,-7.949 3.926,-20.416 -5.905,-34.652 -13.489,-19.524 -42.352,-34.718 -63.43,-45.815 z m 9.749,69.189 C 294.025,268.96 200.035,348.73 97.914,396.875 94.492,334.681 93.966,271.541 93.469,210.331 c -0.396,-48.109 -0.808,-97.7 -2.621,-146.797 102.549,43.152 194.824,93.127 268.475,145.402 z"
   id="path2"
   inkscape:transform-center-x="-10.525531"
   inkscape:transform-center-y="141.21755"
   style="fill:#ffffff" />
	</g>
</g>
<g
   id="g8">
</g>
<g
   id="g10">
</g>
<g
   id="g12">
</g>
<g
   id="g14">
</g>
<g
   id="g16">
</g>
<g
   id="g18">
</g>
<g
   id="g20">
</g>
<g
   id="g22">
</g>
<g
   id="g24">
</g>
<g
   id="g26">
</g>
<g
   id="g28">
</g>
<g
   id="g30">
</g>
<g
   id="g32">
</g>
<g
   id="g34">
</g>
<g
   id="g36">
</g>
</svg>
