<?xml version="1.0" encoding="UTF-8" standalone="no"?>
<svg
   width="16"
   height="16"
   fill="currentColor"
   class="bi bi-chevron-double-left"
   viewBox="0 0 16 16"
   version="1.1"
   id="svg3865"
   sodipodi:docname="chevron-double-left2.svg"
   inkscape:version="1.2 (dc2aedaf03, 2022-05-15)"
   xmlns:inkscape="http://www.inkscape.org/namespaces/inkscape"
   xmlns:sodipodi="http://sodipodi.sourceforge.net/DTD/sodipodi-0.dtd"
   xmlns="http://www.w3.org/2000/svg"
   xmlns:svg="http://www.w3.org/2000/svg">
  <defs
     id="defs3869" />
  <sodipodi:namedview
     id="namedview3867"
     pagecolor="#ffffff"
     bordercolor="#000000"
     borderopacity="0.25"
     inkscape:showpageshadow="2"
     inkscape:pageopacity="0.0"
     inkscape:pagecheckerboard="0"
     inkscape:deskcolor="#d1d1d1"
     showgrid="false"
     inkscape:zoom="32.8125"
     inkscape:cx="8"
     inkscape:cy="8.0304762"
     inkscape:window-width="1366"
     inkscape:window-height="704"
     inkscape:window-x="-8"
     inkscape:window-y="-8"
     inkscape:window-maximized="1"
     inkscape:current-layer="svg3865" />
  <path
     fill-rule="evenodd"
     d="M8.354 1.646a.5.5 0 0 1 0 .708L2.707 8l5.647 5.646a.5.5 0 0 1-.708.708l-6-6a.5.5 0 0 1 0-.708l6-6a.5.5 0 0 1 .708 0z"
     id="path3861"
     style="fill:#b8e0e1;fill-opacity:1" />
  <path
     fill-rule="evenodd"
     d="M12.354 1.646a.5.5 0 0 1 0 .708L6.707 8l5.647 5.646a.5.5 0 0 1-.708.708l-6-6a.5.5 0 0 1 0-.708l6-6a.5.5 0 0 1 .708 0z"
     id="path3863"
     style="fill:#b8e0e1;fill-opacity:1" />
</svg>
