<?xml version="1.0" encoding="UTF-8" standalone="no"?>
<svg
   id="Layer_1"
   data-name="Layer 1"
   viewBox="0 0 512 512"
   version="1.1"
   sodipodi:docname="clochesvg.svg"
   inkscape:version="1.2 (dc2aedaf03, 2022-05-15)"
   xmlns:inkscape="http://www.inkscape.org/namespaces/inkscape"
   xmlns:sodipodi="http://sodipodi.sourceforge.net/DTD/sodipodi-0.dtd"
   xmlns="http://www.w3.org/2000/svg"
   xmlns:svg="http://www.w3.org/2000/svg"
   xmlns:rdf="http://www.w3.org/1999/02/22-rdf-syntax-ns#"
   xmlns:cc="http://creativecommons.org/ns#"
   xmlns:dc="http://purl.org/dc/elements/1.1/">
  <defs
     id="defs15" />
  <sodipodi:namedview
     id="namedview13"
     pagecolor="#ffffff"
     bordercolor="#000000"
     borderopacity="0.25"
     inkscape:showpageshadow="2"
     inkscape:pageopacity="0.0"
     inkscape:pagecheckerboard="0"
     inkscape:deskcolor="#d1d1d1"
     showgrid="false"
     inkscape:zoom="1.0253906"
     inkscape:cx="255.51238"
     inkscape:cy="256.48762"
     inkscape:window-width="1366"
     inkscape:window-height="705"
     inkscape:window-x="-8"
     inkscape:window-y="-8"
     inkscape:window-maximized="1"
     inkscape:current-layer="Layer_1" />
  <title
     id="title2">bell</title>
  <rect
     y="2.15"
     width="512"
     height="507.71"
     fill="#00833a"
     id="rect4"
     style="fill:#f2f2f2;fill-opacity:1" />
  <path
     d="M266.13,142a52.93,52.93,0,0,1,7.6.51v-5.29a18.09,18.09,0,1,0-36.18,0v5.36a62,62,0,0,1,8.84-.58Z"
     fill="#00833a"
     id="path6"
     style="fill:#ff2a2a;fill-opacity:1" />
  <path
     d="m 133.35,340.42095 h 113.78 v 21 c -4.26,2.92 -8.07,8.28 -8.07,14.41 a 16.86,16.86 0 0 0 16.85,16.76 16.67,16.67 0 0 0 16.63,-16.76 c 0,-6.57 -3.06,-12.25 -9.45,-15 v -20.41 h 115.55 a 8,8 0 0 0 7,-11.87 L 372,304.20095 H 140 l -13.6,24.29 a 8,8 0 0 0 6.95,11.9 z"
     fill="#fff"
     id="path8"
     style="fill:#ff2a2a" />
  <path
     d="M221.59,137.21v9.43a69.28,69.28,0,0,0-23.42,15.43,67.4,67.4,0,0,0-19.68,48.34l.13,15.72a100.29,100.29,0,0,1-9,42.23l-20.51,36.46H363.14l-20.34-36.46a100.35,100.35,0,0,1-8.89-41.92l.12-16a67.74,67.74,0,0,0-20-48.35,63.49,63.49,0,0,0-24.32-15.64v-9.22a34.05,34.05,0,1,0-68.11,0Zm16,0a18.09,18.09,0,1,1,36.18,0v5.29a52.93,52.93,0,0,0-7.6-.51H246.39a62,62,0,0,0-8.84.58Z"
     fill="#fff"
     id="path10"
     style="fill:#ff2a2a;fill-opacity:1" />
  <metadata
     id="metadata3115">
    <rdf:RDF>
      <cc:Work
         rdf:about="">
        <dc:title>bell</dc:title>
      </cc:Work>
    </rdf:RDF>
  </metadata>
</svg>
