<?xml version="1.0" encoding="UTF-8" standalone="no"?>
<!-- Created with Inkscape (http://www.inkscape.org/) -->

<svg
   version="1.1"
   id="svg2"
   width="512"
   height="512"
   viewBox="0 0 512 512"
   sodipodi:docname="figma_logo_icon_1731571.svg"
   inkscape:version="1.2 (dc2aedaf03, 2022-05-15)"
   xmlns:inkscape="http://www.inkscape.org/namespaces/inkscape"
   xmlns:sodipodi="http://sodipodi.sourceforge.net/DTD/sodipodi-0.dtd"
   xmlns:xlink="http://www.w3.org/1999/xlink"
   xmlns="http://www.w3.org/2000/svg"
   xmlns:svg="http://www.w3.org/2000/svg">
  <defs
     id="defs6" />
  <sodipodi:namedview
     id="namedview4"
     pagecolor="#ffffff"
     bordercolor="#000000"
     borderopacity="0.25"
     inkscape:showpageshadow="2"
     inkscape:pageopacity="0.0"
     inkscape:pagecheckerboard="0"
     inkscape:deskcolor="#d1d1d1"
     showgrid="false"
     inkscape:zoom="1.0253906"
     inkscape:cx="256"
     inkscape:cy="256.97524"
     inkscape:window-width="1366"
     inkscape:window-height="704"
     inkscape:window-x="-8"
     inkscape:window-y="-8"
     inkscape:window-maximized="1"
     inkscape:current-layer="g8" />
  <g
     inkscape:groupmode="layer"
     inkscape:label="Image"
     id="g8">
    <image
       width="512.00433"
       height="512"
       preserveAspectRatio="none"
       xlink:href="figma_logo_icon_173157.png"
       id="image10"
       style="fill:#030303;fill-opacity:1"
       inkscape:transform-center-x="3.9009446"
       inkscape:transform-center-y="34.209433"
       x="0.97524631"
       y="-8.6209497"
       transform="matrix(0.99999157,-0.00410671,0,1,0,0)" />
    <path
       style="fill:#030303;fill-opacity:1;stroke-width:0.975238"
       d="m 181.8819,460.6837 c -21.61556,-1.67317 -41.0182,-12.00138 -53.99699,-28.74311 -8.28313,-10.68464 -9.20641,-12.10713 -11.64116,-17.93539 -7.88682,-18.87925 -8.11635,-41.40869 -0.6149,-60.35321 4.6303,-11.69355 15.29202,-25.58093 25.36014,-33.03274 3.44956,-2.55316 6.27193,-5.08096 6.27193,-5.61735 0,-0.53638 -2.87888,-3.106 -6.39751,-5.71029 -3.51863,-2.60427 -8.18488,-6.99284 -10.36944,-9.75238 -16.22201,-20.49156 -20.82785,-33.29313 -20.05087,-55.72971 0.37894,-10.94216 0.85881,-13.91777 3.50465,-21.7318 1.91536,-5.65669 4.93396,-11.82251 8.04516,-16.43312 5.70299,-8.45146 17.11972,-20.83631 21.97199,-23.83517 1.81283,-1.1204 3.29605,-2.54986 3.29604,-3.17659 -1e-5,-0.62673 -2.82239,-3.22846 -6.27195,-5.78161 -8.62018,-6.38014 -18.55274,-18.40369 -23.96165,-29.00602 -3.95423,-7.75093 -6.8261,-21.6655 -6.8186,-33.03693 0.0112,-17.004847 3.68415,-29.163369 12.99858,-43.029232 13.87344,-20.652616 35.84438,-33.756444 60.62191,-36.155912 11.88649,-1.151093 136.07141,-1.087774 148.03046,0.07548 18.68422,1.817404 35.89163,9.765675 48.49433,22.4 7.30407,7.322403 14.85069,18.344844 18.19502,26.575306 7.4625,18.365323 6.86806,43.268738 -1.46666,61.443518 -4.25952,9.28836 -14.29565,21.85284 -22.80428,28.54923 -4.08925,3.21828 -7.46955,6.36421 -7.51179,6.99093 -0.0422,0.62673 1.36074,2.02795 3.11772,3.11382 4.61569,2.85265 16.25371,15.21123 21.12405,22.43192 8.93416,13.24563 12.74049,25.81108 12.74049,42.05886 0,10.79064 -1.96681,22.18618 -5.13553,29.75494 -2.77996,6.64015 -12.39981,20.64628 -18.644,27.14497 -9.24368,9.62041 -23.22842,17.19161 -38.29103,20.73039 -10.39601,2.44241 -30.52976,1.46302 -40.81706,-1.98553 -8.95506,-3.00194 -17.04019,-7.30308 -25.66992,-13.65593 -3.31694,-2.44179 -6.24899,-4.43961 -6.51568,-4.43961 -0.26667,0 -0.4962,17.22514 -0.51003,38.27809 -0.0258,39.25257 -0.74187,52.54826 -3.36551,62.48978 -3.73645,14.15819 -16.53281,33.46136 -27.25333,41.11138 -7.52958,5.37298 -19.69867,11.51921 -26.91659,13.59471 -7.37411,2.12041 -19.389,3.12276 -28.74799,2.39831 z m 21.36862,-22.82021 c 14.61516,-3.80676 31.4731,-17.93571 37.90014,-31.76478 4.15587,-8.94219 4.60934,-13.60699 4.60934,-47.41599 v -32.46558 h -32.9532 c -36.84588,0 -39.26337,0.30994 -51.31498,6.57899 -12.54898,6.52777 -23.60641,20.63208 -27.40664,34.95855 -2.06022,7.76683 -2.04298,23.21407 0.0339,30.40553 5.45377,18.88408 21.26516,34.71626 39.59396,39.64599 7.00965,1.88533 22.40452,1.91519 29.53745,0.0572 z M 245.76,246.24762 v -56.56381 h -33.10054 c -18.2053,0 -33.33614,0.38121 -33.6241,0.84714 -0.28796,0.46592 -2.23839,1.12135 -4.33429,1.4565 -2.09591,0.33515 -7.75961,2.58617 -12.58601,5.00228 -14.31724,7.16723 -23.80131,19.07828 -27.98725,35.14921 -1.75192,6.72607 -1.95548,20.59894 -0.41023,27.95782 3.14527,14.9786 13.56905,28.73881 27.10534,35.78116 12.71879,6.61704 14.07141,6.79734 51.53518,6.86933 l 33.4019,0.0642 z m 93.13524,55.22385 c 2.6819,-0.72424 8.76371,-3.45677 13.51514,-6.07228 19.05275,-10.48798 28.90772,-27.41053 28.90772,-49.63919 0,-21.68533 -10.1704,-39.49367 -27.96387,-48.9647 -10.06964,-5.35982 -17.11427,-7.11149 -28.59994,-7.11149 -20.83726,0 -35.35935,8.02067 -48.05745,26.54253 -6.45738,9.41895 -7.97777,15.03203 -7.99963,29.53366 -0.0225,14.96266 1.36914,20.57267 7.29148,29.39247 9.48838,14.13047 21.17925,23.05353 34.40244,26.25768 6.83608,1.65646 22.47265,1.69011 28.50411,0.0613 z M 245.76,110.68952 V 54.125714 h -32.9532 c -36.76671,0 -39.34885,0.327637 -51.05273,6.477852 -4.50538,2.367507 -8.85626,5.814802 -13.47265,10.674662 -11.22246,11.814333 -15.64904,22.962439 -15.64904,39.411292 0,14.7009 3.3946,24.63202 12.44447,36.4071 4.86163,6.3256 9.66176,10.16003 18.05562,14.42308 10.46837,5.31665 12.92597,5.5997 49.22563,5.66945 l 33.4019,0.0642 z m 94.05947,54.09803 c 7.36297,-1.91781 17.87884,-7.45668 23.42415,-12.33785 7.24329,-6.37581 13.9682,-17.62774 16.61974,-27.80774 1.86772,-7.17064 1.86903,-22.67969 0.003,-29.845702 C 374.82942,75.459994 358.06178,59.232386 337.92,54.201337 334.21131,53.274973 325.27997,53.151875 300.61714,53.687201 l -32.42666,0.703848 v 55.943521 55.94353 h 32.95319 c 26.41753,0 34.08817,-0.29563 38.6758,-1.49055 z"
       id="path2645" />
    <path
       style="fill:#ffffff;fill-opacity:1;stroke-width:0.975238"
       d="m 185.25741,461.43387 c -0.24738,-0.23554 -2.86351,-0.67621 -5.8136,-0.97926 -11.16606,-1.14705 -17.69476,-3.15166 -28.0181,-8.60286 -11.0949,-5.85861 -18.50081,-12.62625 -28.64881,-26.17969 -4.71978,-6.30364 -9.18962,-16.76178 -11.24585,-26.31206 -0.93177,-4.32767 -1.05522,-25.56156 -0.1786,-30.72 2.11865,-12.46716 6.82575,-23.04888 14.90053,-33.49694 3.91997,-5.07209 18.64208,-18.62089 20.27654,-18.66055 2.26198,-0.0549 -0.29839,-3.14363 -6.90345,-8.3281 -11.90528,-9.34474 -21.70655,-23.48993 -26.34073,-38.01491 -1.66814,-5.22847 -3.75959,-20.07938 -3.36469,-23.89188 0.0833,-0.80457 0.40358,-4.48477 0.71165,-8.17822 0.63884,-7.65922 2.9707,-17.4199 4.89074,-20.47166 0.71634,-1.13856 1.62928,-3.16726 2.02874,-4.50822 1.79856,-6.03745 20.08261,-27.43429 27.7587,-32.4845 l 2.43809,-1.60407 -4.27463,-3.67952 c -11.48582,-9.88678 -23.51965,-23.47415 -23.51965,-26.55598 0,-0.55929 -0.39736,-1.01688 -0.88301,-1.01688 -0.99501,0 -6.40969,-14.38825 -7.358,-19.55218 -1.33901,-7.29138 -1.66717,-21.34564 -0.68576,-29.368907 2.34864,-19.200797 13.79146,-37.910153 31.63098,-51.717605 2.77314,-2.146353 3.36551,-2.508477 10.64308,-6.506205 7.03444,-3.864164 19.93776,-7.963649 27.38143,-8.699288 7.59138,-0.750238 142.00722,-0.981936 150.89794,-0.260109 4.78611,0.388578 19.01715,3.345902 19.01715,3.951914 0,0.08208 0.6884,0.28457 1.52976,0.44998 1.29771,0.255126 6.28939,2.593351 14.62723,6.851753 1.0367,0.529477 1.88491,1.297477 1.88491,1.706667 0,0.40919 0.43384,0.743981 0.96409,0.743981 1.26643,0 3.7859,2.139377 11.07091,9.400706 6.69936,6.677579 6.86491,6.874529 10.95235,13.029771 8.7659,13.200506 11.6336,23.417416 11.6336,41.447622 0,13.51345 -0.9504,19.7017 -4.39937,28.64519 -4.84989,12.57617 -14.14667,24.48315 -28.38721,36.3573 l -4.27247,3.56251 2.92572,2.20807 c 8.34069,6.29482 24.86857,25.00057 24.86857,28.1455 0,0.57383 0.38562,1.04333 0.85692,1.04333 0.47131,0 1.39332,1.42629 2.0489,3.16953 0.65558,1.74323 1.55896,4.04723 2.0075,5.12 0.70553,1.68741 1.37371,3.71841 2.56674,7.8019 2.66684,9.12802 2.60527,30.46303 -0.11821,40.96 -2.04715,7.89019 -6.4112,17.62895 -9.27923,20.70742 -1.09097,1.17101 -1.98357,2.58633 -1.98357,3.14514 0,0.5588 -0.40929,1.01601 -0.90952,1.01601 -0.50024,0 -1.17006,0.8209 -1.4885,1.82421 -1.56298,4.9245 -18.69156,19.3986 -28.32198,23.9328 -2.14553,1.01016 -4.6259,2.18776 -5.51193,2.61689 -6.59568,3.19451 -27.81718,6.18408 -34.58251,4.87182 -2.62159,-0.5085 -5.4248,-0.90595 -6.22937,-0.88319 -7.06747,0.19978 -28.86691,-8.34247 -34.6836,-13.591 -3.34796,-3.02093 -9.31942,-7.27645 -9.69021,-6.90565 -0.198,0.19799 -0.45155,18.34516 -0.56344,40.32705 -0.25784,50.65303 -1.08486,58.05178 -8.10962,72.55115 -4.28446,8.8433 -4.86104,9.83878 -5.69868,9.83878 -0.40919,0 -0.74398,0.4702 -0.74398,1.0449 0,0.57469 -0.54857,1.6232 -1.21904,2.33003 -0.67048,0.70682 -2.09676,2.52027 -3.16953,4.02989 -5.05434,7.11258 -12.68325,13.31558 -23.09402,18.77755 -8.83883,4.63725 -17.80751,7.56451 -25.76949,8.41084 -3.1624,0.33615 -7.7417,0.8286 -10.17622,1.09433 -2.43451,0.26574 -4.6288,0.29045 -4.87619,0.0549 z m 15.83744,-23.17233 c 7.43681,-1.55877 19.6736,-8.20678 26.16049,-14.21249 6.56417,-6.07726 12.80731,-15.27199 15.84377,-23.33423 2.05919,-5.46746 2.17781,-7.39497 2.46892,-40.12053 l 0.30582,-34.37715 h -32.83044 c -36.26602,0 -39.69153,0.41543 -50.66627,6.14454 -3.43256,1.79188 -8.88857,6.09175 -13.19853,10.40169 -11.85408,11.85409 -16.54623,23.2022 -16.54623,40.01758 0,16.78617 4.68038,28.12026 16.54623,40.06871 7.86317,7.91791 16.14222,12.78889 25.65442,15.09382 6.46472,1.56648 19.5496,1.72495 26.26182,0.31806 z M 245.76,246.24762 v -56.56381 l -30.96381,0.015 c -27.56479,0.0134 -31.80238,0.22627 -38.60288,1.93985 -26.77777,6.74736 -43.56093,27.97499 -43.56093,55.09656 0,21.19763 10.11673,38.97074 27.79429,48.82913 11.9989,6.69151 15.1751,7.12723 52.41904,7.19084 l 32.91429,0.0562 z m 102.99828,50.79425 c 21.7072,-10.79032 32.55982,-27.88324 32.55982,-51.28187 0,-21.17964 -10.34981,-39.15258 -28.23117,-49.02482 -10.28452,-5.67805 -18.18624,-7.41068 -31.08518,-6.81608 -21.48995,0.99059 -36.44435,10.68142 -47.79491,30.97233 -8.00307,14.30672 -7.97196,35.91728 0.0734,51.01196 4.44293,8.33581 15.82692,20.08814 23.35799,24.11379 10.24872,5.47832 16.2603,6.81022 29.27747,6.48658 l 11.42621,-0.28409 z M 245.76,110.68952 V 54.125714 h -32.13486 c -19.52617,0 -34.16261,0.419759 -37.30285,1.069812 -15.20785,3.148129 -31.3305,15.924484 -38.10614,30.197125 -4.24719,8.946553 -5.58377,15.154699 -5.58377,25.935529 0,16.10973 4.83911,27.64144 16.54623,39.43005 7.86317,7.91791 16.14222,12.7889 25.65442,15.09382 3.55794,0.86213 15.0433,1.26047 38.01268,1.31834 l 32.91429,0.0829 z m 97.64722,53.09868 c 16.65176,-6.0762 29.72373,-19.19075 35.30599,-35.42098 2.41448,-7.02003 3.26223,-22.4155 1.68418,-30.585298 C 377.87235,84.709385 369.1315,71.48869 358.0482,63.978367 342.30947,53.313408 340.21116,52.939956 300.61714,53.75694 l -32.42666,0.669092 V 110.398 166.36998 l 34.86476,-0.28975 c 32.3167,-0.26858 35.26579,-0.43609 40.35198,-2.29203 z"
       id="path2647" />
  </g>
</svg>
