<?xml version="1.0" encoding="UTF-8" standalone="no"?>
<!-- Created with Inkscape (http://www.inkscape.org/) -->

<svg
   version="1.1"
   id="svg34503"
   width="225"
   height="225"
   viewBox="0 0 225 225"
   sodipodi:docname="image.svg"
   inkscape:version="1.2 (dc2aedaf03, 2022-05-15)"
   xmlns:inkscape="http://www.inkscape.org/namespaces/inkscape"
   xmlns:sodipodi="http://sodipodi.sourceforge.net/DTD/sodipodi-0.dtd"
   xmlns:xlink="http://www.w3.org/1999/xlink"
   xmlns="http://www.w3.org/2000/svg"
   xmlns:svg="http://www.w3.org/2000/svg">
  <defs
     id="defs34507" />
  <sodipodi:namedview
     id="namedview34505"
     pagecolor="#ffffff"
     bordercolor="#000000"
     borderopacity="0.25"
     inkscape:showpageshadow="2"
     inkscape:pageopacity="0.0"
     inkscape:pagecheckerboard="0"
     inkscape:deskcolor="#d1d1d1"
     showgrid="false"
     inkscape:zoom="2.3333333"
     inkscape:cx="112.5"
     inkscape:cy="112.92857"
     inkscape:window-width="1366"
     inkscape:window-height="704"
     inkscape:window-x="-8"
     inkscape:window-y="-8"
     inkscape:window-maximized="1"
     inkscape:current-layer="g34509" />
  <g
     inkscape:groupmode="layer"
     inkscape:label="Image"
     id="g34509">
    <image
       width="225"
       height="225"
       preserveAspectRatio="none"
       style="image-rendering:optimizeQuality;fill:#ffffff"
       xlink:href="images.png"
       id="image34511" />
    <path
       style="fill:#ffffff;stroke-width:0"
       d="m 115.28571,220.92857 c 0,-0.25 -1.42857,-0.42857 -3.42857,-0.42857 -2,0 -3.42857,-0.17857 -3.42857,-0.42857 0,-0.23572 -0.7852,-0.42857 -1.7449,-0.42857 -0.97959,0 -2.02685,-0.28196 -2.38775,-0.64286 -0.35357,-0.35357 -1.40051,-0.64286 -2.32653,-0.64286 -0.92602,0 -1.68368,-0.19285 -1.68368,-0.42857 0,-0.23571 -0.674996,-0.42857 -1.499996,-0.42857 -0.825,0 -1.5,-0.19286 -1.5,-0.42857 0,-0.23572 -0.365083,-0.42857 -0.81129,-0.42857 -0.446211,0 -0.922298,-0.28929 -1.05798,-0.64286 -0.144205,-0.3758 -0.78639,-0.64286 -1.545853,-0.64286 -0.71454,0 -1.299162,-0.19285 -1.299162,-0.42857 0,-0.23571 -0.482143,-0.42857 -1.071429,-0.42857 -0.589286,0 -1.071429,-0.19286 -1.071429,-0.42857 0,-0.23572 -0.482142,-0.42857 -1.071428,-0.42857 -0.589286,0 -1.071429,-0.20663 -1.071429,-0.45919 0,-0.72312 -1.147024,-1.68367 -2.010523,-1.68367 -0.432321,0 -1.148108,-0.48214 -1.590642,-1.07143 -0.442539,-0.58928 -1.067649,-1.07143 -1.389146,-1.07143 -0.793607,0 -13.866832,-13.13946 -13.866832,-13.93708 0,-0.34889 -0.192857,-0.63435 -0.428571,-0.63435 -0.235714,0 -0.428571,-0.28928 -0.428571,-0.64285 0,-0.35357 -0.206633,-0.64286 -0.459184,-0.64286 -0.694175,0 -1.683674,-1.13343 -1.683674,-1.92857 0,-0.79515 -0.989498,-1.92857 -1.683673,-1.92857 -0.252551,0 -0.459184,-0.28929 -0.459184,-0.64286 0,-0.35357 -0.192857,-0.64286 -0.428571,-0.64286 -0.235714,0 -0.428572,-0.31538 -0.428572,-0.70085 0,-0.38547 -0.482142,-1.14769 -1.071428,-1.69382 -0.589286,-0.54614 -1.071429,-1.29147 -1.071429,-1.65629 0,-0.36483 -0.192857,-0.66332 -0.428571,-0.66332 -0.235714,0 -0.428572,-0.28929 -0.428572,-0.64286 0,-0.35357 -0.192857,-0.64286 -0.428571,-0.64286 -0.235714,0 -0.428571,-0.38571 -0.428571,-0.85714 0,-0.47619 -0.285715,-0.85714 -0.642858,-0.85714 -0.353571,0 -0.642857,-0.34935 -0.642857,-0.77633 0,-0.42699 -0.385714,-1.19035 -0.857143,-1.69637 -0.471428,-0.50602 -0.857142,-1.19037 -0.857142,-1.52078 0,-0.33041 -0.482143,-0.96282 -1.071429,-1.40536 -0.590102,-0.44314 -1.071429,-1.24024 -1.071429,-1.77431 0,-0.53334 -0.192857,-0.96971 -0.428571,-0.96971 -0.235714,0 -0.428571,-0.39177 -0.428571,-0.87059 0,-0.47883 -0.289286,-0.98161 -0.642858,-1.11728 -0.353571,-0.13568 -0.642857,-0.61177 -0.642857,-1.05798 0,-0.44621 -0.192857,-0.81129 -0.428571,-0.81129 -0.235714,0 -0.428572,-0.28929 -0.428572,-0.64286 0,-0.35357 -0.192857,-0.64286 -0.428571,-0.64286 -0.235714,0 -0.428571,-0.38571 -0.428571,-0.85714 0,-0.47619 -0.285715,-0.85714 -0.642858,-0.85714 -0.399999,0 -0.642857,-0.40476 -0.642857,-1.07143 0,-0.58929 -0.192857,-1.07143 -0.428571,-1.07143 -0.235714,0 -0.428572,-0.38571 -0.428572,-0.85714 0,-0.47143 -0.192857,-0.85715 -0.428571,-0.85715 -0.235714,0 -0.428571,-0.28928 -0.428571,-0.64285 0,-0.35357 -0.289286,-0.64286 -0.642858,-0.64286 -0.399999,0 -0.642857,-0.40476 -0.642857,-1.07143 0,-0.58928 -0.192857,-1.07143 -0.428571,-1.07143 -0.235714,0 -0.428572,-0.38571 -0.428572,-0.85714 0,-0.47143 -0.192857,-0.85714 -0.428571,-0.85714 -0.235714,0 -0.428571,-0.48215 -0.428571,-1.07143 0,-0.66667 -0.242858,-1.07143 -0.642858,-1.07143 -0.353571,0 -0.642857,-0.27106 -0.642857,-0.60236 0,-0.882 -1.839325,-4.18558 -2.464285,-4.42606 -0.294643,-0.11338 -0.535715,-0.57122 -0.535715,-1.01743 0,-0.44621 -0.192857,-0.81129 -0.428571,-0.81129 -0.235714,0 -0.428572,-0.48215 -0.428572,-1.07143 0,-0.58929 -0.192857,-1.07143 -0.428571,-1.07143 -0.235714,0 -0.428571,-0.39177 -0.428571,-0.87059 0,-0.47883 -0.289286,-0.98161 -0.642858,-1.11728 -0.353571,-0.13568 -0.642857,-0.61177 -0.642857,-1.05798 0,-0.44621 -0.192857,-0.81129 -0.428571,-0.81129 -0.235714,0 -0.428572,-0.48215 -0.428572,-1.07143 0,-0.58929 -0.149,-1.07143 -0.331112,-1.07143 -0.182112,0 -0.694624,-0.675 -1.138916,-1.5 -0.444292,-0.825 -0.970291,-1.5 -1.168888,-1.5 -0.198596,0 -0.361084,-0.48214 -0.361084,-1.07143 0,-0.58928 -0.192857,-1.07143 -0.428571,-1.07143 -0.235714,0 -0.428571,-0.38571 -0.428571,-0.85714 0,-0.47619 -0.285715,-0.85714 -0.642858,-0.85714 -0.4,0 -0.642857,-0.40476 -0.642857,-1.07143 0,-0.58929 -0.192857,-1.07143 -0.428571,-1.07143 -0.235714,0 -0.428572,-0.56719 -0.428572,-1.26042 0,-0.69323 -0.192857,-1.37961 -0.428571,-1.52529 -0.235714,-0.14568 -0.428571,-0.83812 -0.428571,-1.53875 0,-0.73698 -0.270943,-1.37784 -0.642858,-1.52056 -0.931279,-0.35736 -0.931279,-6.80974 0,-7.16711 0.403498,-0.15483 0.642858,-0.8102 0.642858,-1.76014 0,-0.83239 0.192857,-1.51344 0.428571,-1.51344 0.235714,0 0.428571,-0.38572 0.428571,-0.85715 0,-0.47143 0.192858,-0.85714 0.428572,-0.85714 0.235714,0 0.428571,-0.48214 0.428571,-1.07143 0,-0.58928 0.218633,-1.07143 0.485851,-1.07143 0.513135,0 2.512734,-2.13081 2.513626,-2.67857 2.88e-4,-0.17678 0.202147,-0.32143 0.448575,-0.32143 0.246429,0 0.912143,-0.43393 1.479365,-0.96428 1.883173,-1.76078 2.314991,-2.03572 3.197352,-2.03572 0.481377,0 0.875231,-0.19285 0.875231,-0.42857 0,-0.23571 0.675,-0.42857 1.5,-0.42857 0.825,0 1.5,-0.19286 1.5,-0.42857 0,-0.24762 1.357143,-0.42857 3.214286,-0.42857 1.857143,0 3.214286,0.18095 3.214286,0.42857 0,0.23571 0.867857,0.42857 1.928571,0.42857 1.060714,0 1.928572,0.19286 1.928572,0.42857 0,0.23572 0.482142,0.42857 1.071428,0.42857 0.666667,0 1.071429,0.24286 1.071429,0.64286 0,0.35714 0.380952,0.64286 0.857143,0.64286 0.471428,0 0.857142,0.19285 0.857142,0.42857 0,0.23571 0.206633,0.42857 0.459184,0.42857 0.499476,0 1.683674,1.05501 1.683674,1.5 0,0.3576 1.142406,1.5 1.5,1.5 0.357594,0 1.5,1.1424 1.5,1.5 0,0.44499 1.184197,1.5 1.683673,1.5 0.252551,0 0.459419,0.3375 0.459707,0.75 6e-4,0.87639 1.805258,3.10714 2.513626,3.10714 0.267218,0 0.485851,0.28929 0.485851,0.64286 0,0.35357 0.192857,0.64286 0.428571,0.64286 0.235714,0 0.428572,0.30441 0.428572,0.67646 0,0.86602 3.185061,4.03782 4.054701,4.03782 0.58938,0 0.659584,-4.6104 0.659584,-43.316324 0,-37.931972 0.07991,-43.396235 0.642857,-43.959183 0.447716,-0.447718 0.642858,-1.544218 0.642858,-3.612245 C 74.571429,29.77551 74.755521,28.5 75,28.5 c 0.235714,0 0.428571,-0.482143 0.428571,-1.071429 0,-0.589285 0.192858,-1.071428 0.428572,-1.071428 0.235714,0 0.428571,-0.385714 0.428571,-0.857143 0,-0.47619 0.285716,-0.857143 0.642857,-0.857143 0.353572,0 0.642858,-0.201623 0.642858,-0.448052 0,-0.659657 2.00667,-2.551948 2.706201,-2.551948 0.331269,0 0.96438,-0.482143 1.406919,-1.071428 C 82.127696,19.981326 82.924787,19.5 83.458864,19.5 c 0.53334,0 0.969707,-0.192857 0.969707,-0.428571 0,-0.235715 0.584623,-0.428572 1.299163,-0.428572 0.759463,0 1.401647,-0.267059 1.545853,-0.642857 0.357257,-0.930988 7.953763,-0.930988 8.726413,0 0.293439,0.353571 1.18491,0.642857 1.981046,0.642857 0.79614,0 1.447525,0.192857 1.447525,0.428572 0,0.235714 0.674999,0.428571 1.499999,0.428571 1.31429,0 1.5,-0.132653 1.5,-1.071429 0,-0.589285 0.19286,-1.071428 0.42857,-1.071428 0.23572,0 0.42857,-0.675 0.42857,-1.5 0,-1.047619 0.19388,-1.5 0.64286,-1.5 0.35357,0 0.64286,-0.374332 0.64286,-0.83185 0,-0.457518 0.19286,-0.951042 0.42857,-1.096722 0.23571,-0.145679 0.42857,-0.542291 0.42857,-0.881358 0,-0.808043 5.41598,-6.1900701 6.22912,-6.1900701 0.34541,0 0.62802,-0.1928572 0.62802,-0.4285715 0,-0.2357143 0.48215,-0.4285714 1.07143,-0.4285714 0.58929,0 1.07143,-0.1928571 1.07143,-0.4285714 0,-0.2653061 2.28571,-0.4285715 6,-0.4285715 3.71429,0 6,0.1632654 6,0.4285715 0,0.2357143 0.48214,0.4285714 1.07143,0.4285714 0.58929,0 1.07143,0.1928571 1.07143,0.4285714 0,0.2357143 0.48214,0.4285715 1.07143,0.4285715 0.58928,0 1.07143,0.2016233 1.07143,0.4480519 0,0.5817598 1.97019,2.5519481 2.55195,2.5519481 0.24642,0 0.44805,0.2016235 0.44805,0.4480521 0,0.5817596 1.97019,2.551948 2.55195,2.551948 0.24642,0 0.44805,0.482143 0.44805,1.071428 0,0.589286 0.17944,1.071429 0.39876,1.071429 0.21932,0 0.46039,0.431958 0.53571,0.959907 0.15747,1.103732 1.63695,1.620271 1.63695,0.571518 0,-0.43352 0.38257,-0.674282 1.07143,-0.674282 0.58929,0 1.07143,-0.192857 1.07143,-0.428572 0,-0.235714 0.86786,-0.428571 1.92857,-0.428571 1.06072,0 1.92857,-0.192857 1.92857,-0.428571 0,-0.56713 8.00664,-0.56713 8.35715,0 0.14568,0.235714 0.83206,0.428571 1.52529,0.428571 0.69323,0 1.26042,0.192857 1.26042,0.428571 0,0.235715 0.46151,0.428572 1.02558,0.428572 0.56407,0 1.13658,0.289286 1.27226,0.642857 0.13568,0.353571 0.55079,0.642857 0.92248,0.642857 0.7561,0 2.77968,1.857791 2.77968,2.551948 0,0.246429 0.28929,0.448052 0.64286,0.448052 0.35714,0 0.64286,0.380953 0.64286,0.857143 0,0.471429 0.19285,0.857143 0.42857,0.857143 0.23571,0 0.42857,0.482143 0.42857,1.071428 0,0.589286 0.19286,1.071429 0.42857,1.071429 0.23571,0 0.42857,0.391767 0.42857,0.870594 0,0.478826 0.28929,0.981602 0.64286,1.117281 0.46146,0.177081 0.64286,0.89885 0.64286,2.557977 0,1.27121 0.19285,2.311291 0.42857,2.311291 0.2585,0 0.42857,1.785714 0.42857,4.5 v 4.5 H 169.5 c 1.06071,0 1.92857,-0.192857 1.92857,-0.428572 0,-0.235714 0.675,-0.428571 1.5,-0.428571 0.825,0 1.5,-0.192857 1.5,-0.428571 0,-0.252101 1.5,-0.428572 3.64286,-0.428572 2.14286,0 3.64286,0.176471 3.64286,0.428572 0,0.235714 0.86785,0.428571 1.92857,0.428571 1.06071,0 1.92857,0.192857 1.92857,0.428571 0,0.235715 0.48214,0.428572 1.07143,0.428572 0.58928,0 1.07143,0.21981 1.07143,0.488467 0,0.597002 1.29097,1.622099 2.06632,1.64076 0.68656,0.01652 1.79082,1.06312 1.79082,1.697303 0,0.252551 0.19286,0.459184 0.42857,0.459184 0.23571,0 0.42857,0.385714 0.42857,0.857143 0,0.47619 0.28572,0.857143 0.64286,0.857143 0.4,0 0.64286,0.404762 0.64286,1.071428 0,0.589286 0.19285,1.071429 0.42857,1.071429 0.23571,0 0.42857,0.482143 0.42857,1.071429 0,0.589285 0.19286,1.071428 0.42857,1.071428 0.24778,0 0.42857,1.361627 0.42857,3.227734 0,2.473749 0.15017,3.285365 0.64286,3.474425 0.56648,0.217384 0.64286,6.354634 0.64286,51.660024 0,45.12931 -0.0786,51.4919 -0.64286,52.05619 -0.50483,0.50482 -0.64286,1.82712 -0.64286,6.15837 0,3.21473 -0.17878,5.62602 -0.42857,5.7804 -0.23571,0.14568 -0.42857,1.02492 -0.42857,1.95387 0,0.92894 -0.19286,1.68899 -0.42857,1.68899 -0.23572,0 -0.42857,0.86785 -0.42857,1.92857 0,1.42857 -0.16667,1.92857 -0.64286,1.92857 -0.44898,0 -0.64286,0.45238 -0.64286,1.5 0,0.825 -0.19286,1.5 -0.42857,1.5 -0.23571,0 -0.42857,0.675 -0.42857,1.5 0,0.825 -0.19286,1.5 -0.42857,1.5 -0.23572,0 -0.42857,0.48214 -0.42857,1.07143 0,0.66667 -0.24286,1.07143 -0.64286,1.07143 -0.4,0 -0.64286,0.40476 -0.64286,1.07143 0,0.58928 -0.19286,1.07142 -0.42857,1.07142 -0.23571,0 -0.42857,0.38572 -0.42857,0.85715 0,0.47143 -0.19286,0.85714 -0.42857,0.85714 -0.23572,0 -0.42857,0.48214 -0.42857,1.07143 0,0.66667 -0.24286,1.07143 -0.64286,1.07143 -0.35714,0 -0.64286,0.38095 -0.64286,0.85714 0,0.47143 -0.19286,0.85714 -0.42857,0.85714 -0.23571,0 -0.42857,0.28929 -0.42857,0.64286 0,0.35357 -0.19286,0.64286 -0.42857,0.64286 -0.23572,0 -0.42857,0.27555 -0.42857,0.61234 0,0.33679 -0.675,1.32805 -1.5,2.20281 -0.825,0.87475 -1.5,1.94919 -1.5,2.38765 0,0.43846 -0.20163,0.7972 -0.44805,0.7972 -0.58176,0 -2.55195,1.97019 -2.55195,2.55195 0,0.24643 -0.20163,0.44805 -0.44805,0.44805 -0.58176,0 -2.55195,1.97019 -2.55195,2.55195 0,0.24643 -0.24672,0.44805 -0.54825,0.44805 -0.30153,0 -0.82625,0.38571 -1.16604,0.85714 -0.33979,0.47143 -0.93392,0.85714 -1.3203,0.85714 -0.38637,0 -1.06457,0.48215 -1.50711,1.07143 -0.44253,0.58929 -1.09633,1.07756 -1.45288,1.08506 -0.84232,0.0177 -2.14828,1.01514 -2.14828,1.64076 0,0.26866 -0.48214,0.48847 -1.07143,0.48847 -0.58929,0 -1.07143,0.19285 -1.07143,0.42857 0,0.23571 -0.38571,0.42857 -0.85714,0.42857 -0.47143,0 -0.85714,0.19286 -0.85714,0.42857 0,0.23572 -0.39177,0.42857 -0.8706,0.42857 -0.47883,0 -0.9816,0.28929 -1.11728,0.64286 -0.13568,0.35357 -0.70819,0.64286 -1.27226,0.64286 -0.56407,0 -1.02558,0.19285 -1.02558,0.42857 0,0.23571 -0.56719,0.42857 -1.26042,0.42857 -0.69323,0 -1.37961,0.19286 -1.52529,0.42857 -0.14568,0.23572 -0.83812,0.42857 -1.53875,0.42857 -0.73698,0 -1.37784,0.27095 -1.52055,0.64286 -0.16748,0.43644 -0.85124,0.64286 -2.12941,0.64286 -1.0355,0 -1.88272,0.19285 -1.88272,0.42857 0,0.2449 -1.28572,0.42857 -3,0.42857 -1.71429,0 -3,0.18367 -3,0.42857 0,0.27706 -5,0.42857 -14.14286,0.42857 -9.14285,0 -14.14286,-0.15151 -14.14286,-0.42857 z m 22.07143,-6.85714 c 0.14568,-0.23572 1.89883,-0.42857 3.89589,-0.42857 2.83221,0 3.68528,-0.14143 3.8777,-0.64286 0.17277,-0.45023 0.87504,-0.64286 2.34369,-0.64286 1.15335,0 2.09701,-0.19285 2.09701,-0.42857 0,-0.23571 0.86786,-0.42857 1.92857,-0.42857 1.06071,0 1.92857,-0.19286 1.92857,-0.42857 0,-0.23572 0.58462,-0.42857 1.29916,-0.42857 0.75947,0 1.40165,-0.26706 1.54586,-0.64286 0.13568,-0.35357 0.70819,-0.64286 1.27226,-0.64286 0.56407,0 1.02558,-0.19285 1.02558,-0.42857 0,-0.23571 0.38571,-0.42857 0.85714,-0.42857 0.47143,0 0.85714,-0.19286 0.85714,-0.42857 0,-0.23572 0.48215,-0.42857 1.07143,-0.42857 0.66667,0 1.07143,-0.24286 1.07143,-0.64286 0,-0.4 0.40476,-0.64286 1.07143,-0.64286 0.58929,0 1.07143,-0.19285 1.07143,-0.42857 0,-0.23571 0.31242,-0.42857 0.69426,-0.42857 0.38185,0 1.5258,-0.86786 2.54211,-1.92857 1.01631,-1.06072 2.05389,-1.92857 2.30573,-1.92857 0.25185,0 0.4579,-0.20162 0.4579,-0.44805 0,-0.58176 1.97019,-2.55195 2.55195,-2.55195 0.24643,0 0.44805,-0.20128 0.44805,-0.44729 0,-0.246 1.06071,-1.48287 2.35714,-2.74859 1.36879,-1.33636 2.35714,-2.67627 2.35714,-3.19557 0,-0.50919 0.27682,-0.89427 0.64286,-0.89427 0.35714,0 0.64286,-0.38095 0.64286,-0.85714 0,-0.47143 0.19286,-0.85714 0.42857,-0.85714 0.23571,0 0.42857,-0.28929 0.42857,-0.64286 0,-0.35357 0.19286,-0.64286 0.42857,-0.64286 0.23572,0 0.42857,-0.39176 0.42857,-0.87059 0,-0.47883 0.28929,-0.9816 0.64286,-1.11728 0.36644,-0.14062 0.64286,-0.7798 0.64286,-1.48655 0,-0.68192 0.19286,-1.23986 0.42857,-1.23986 0.23571,0 0.42857,-0.48215 0.42857,-1.07143 0,-0.58929 0.19286,-1.07143 0.42857,-1.07143 0.23572,0 0.42857,-0.675 0.42857,-1.5 0,-1.04762 0.19388,-1.5 0.64286,-1.5 0.44898,0 0.64286,-0.45238 0.64286,-1.5 0,-0.825 0.19286,-1.5 0.42857,-1.5 0.23571,0 0.42857,-0.86786 0.42857,-1.92857 0,-1.06072 0.19286,-1.92857 0.42857,-1.92857 0.23711,0 0.42857,-1.12537 0.42857,-2.51896 0,-1.71623 0.20487,-2.68897 0.64286,-3.05247 0.56548,-0.46931 0.64286,-7.33624 0.64286,-57.05248 0,-49.953351 -0.0747,-56.51895 -0.64286,-56.51895 -0.44898,0 -0.64286,-0.452383 -0.64286,-1.5 0,-0.825 -0.19285,-1.5 -0.42857,-1.5 -0.23571,0 -0.42857,-0.399489 -0.42857,-0.887756 0,-0.948827 -0.92736,-2.112244 -1.68367,-2.112244 -0.25255,0 -0.45919,-0.192857 -0.45919,-0.428571 0,-0.235715 -0.36508,-0.428572 -0.81129,-0.428572 -0.44621,0 -0.92229,-0.289286 -1.05798,-0.642857 -0.36092,-0.94055 -8.32911,-0.94055 -8.69003,0 -0.13568,0.353571 -0.56355,0.648991 -0.95083,0.656487 -1.09818,0.02126 -2.20415,1.059586 -2.20415,2.06933 0,0.504373 -0.19286,0.91704 -0.42857,0.91704 -0.23572,0 -0.42857,0.365083 -0.42857,0.81129 0,0.446212 -0.28929,0.922299 -0.64286,1.05798 -0.54444,0.20892 -0.64286,1.688344 -0.64286,9.663416 0,5.815521 -0.1639,9.518023 -0.42857,9.6816 -0.27414,0.169427 -0.42857,6.43302 -0.42857,17.382437 0,11.125993 -0.15001,17.11756 -0.42857,17.11756 -0.23572,0 -0.42857,0.28929 -0.42857,0.64286 0,0.35357 -0.28929,0.64286 -0.64286,0.64286 -0.35357,0 -0.64286,0.19285 -0.64286,0.42857 0,0.23571 -0.675,0.42857 -1.5,0.42857 -0.825,0 -1.5,-0.19286 -1.5,-0.42857 0,-0.23572 -0.48214,-0.42857 -1.07143,-0.42857 h -1.07143 V 92.382437 c 0,-8.377988 -0.1578,-13.357946 -0.42857,-13.525294 -0.27805,-0.171849 -0.42857,-9.353164 -0.42857,-26.142857 0,-16.789695 -0.15051,-25.971008 -0.42857,-26.142857 -0.23571,-0.14568 -0.42857,-0.639204 -0.42857,-1.096722 0,-0.457518 -0.28929,-0.83185 -0.64286,-0.83185 -0.35357,0 -0.64286,-0.201623 -0.64286,-0.448052 0,-0.780961 -2.0684,-2.551948 -2.98052,-2.551948 -0.4935,0 -0.87662,-0.280952 -0.87662,-0.642857 0,-0.935542 -7.78895,-0.935542 -8.72449,0 -0.35357,0.353571 -0.94592,0.642857 -1.31632,0.642857 -0.37041,0 -0.67347,0.192857 -0.67347,0.428572 0,0.235714 -0.20664,0.428571 -0.45919,0.428571 -0.75631,0 -1.68367,1.163418 -1.68367,2.112245 0,0.488265 -0.19286,0.887755 -0.42857,0.887755 -0.26299,0 -0.42857,2.081633 -0.42857,5.387755 0,4.217687 -0.13962,5.527366 -0.64286,6.030612 -0.55976,0.559756 -0.64286,4.710885 -0.64286,32.112246 0,31.183667 -0.008,31.469387 -0.85714,31.469387 -0.47143,0 -0.85714,0.19286 -0.85714,0.42857 0,0.23572 -0.77143,0.42857 -1.71429,0.42857 -0.94286,0 -1.71429,-0.19285 -1.71429,-0.42857 0,-0.23571 -0.38571,-0.42857 -0.85714,-0.42857 -0.85013,0 -0.85714,-0.28572 -0.85714,-34.897959 0,-30.44898 -0.082,-34.979914 -0.64286,-35.540817 -0.51455,-0.514556 -0.64286,-1.931972 -0.64286,-7.10204 0,-4.020409 -0.16181,-6.459184 -0.42857,-6.459184 -0.23571,0 -0.4347,-0.3375 -0.4422,-0.75 -0.0168,-0.926269 -0.98213,-2.25 -1.64076,-2.25 -0.26866,0 -0.48847,-0.192857 -0.48847,-0.428571 0,-0.235715 -0.36508,-0.428572 -0.81129,-0.428572 -0.44621,0 -0.92229,-0.289286 -1.05798,-0.642857 -0.13567,-0.353571 -0.63845,-0.642857 -1.11728,-0.642857 -0.47882,0 -0.87059,-0.192857 -0.87059,-0.428572 0,-0.561501 -5.43869,-0.561501 -5.78571,0 -0.14568,0.235715 -0.63921,0.428572 -1.09673,0.428572 -0.45751,0 -0.83184,0.289286 -0.83184,0.642857 0,0.360694 -0.38256,0.642857 -0.87159,0.642857 -0.99638,0 -3.41413,2.286697 -3.41413,3.229062 0,0.345445 -0.19286,0.628081 -0.42857,0.628081 -0.28227,0 -0.42857,12.134426 -0.42857,35.546134 0,23.235129 -0.14843,35.637875 -0.42857,35.811009 -0.25325,0.156518 -0.42857,2.761466 -0.42857,6.36777 v 6.102897 l -1.42329,0.51467 c -1.72983,0.62551 -3.71957,0.67157 -3.71957,0.0861 0,-0.23571 -0.20663,-0.42857 -0.45919,-0.42857 -1.68202,0 -1.68367,-0.0302 -1.68367,-30.801236 0,-19.255538 -0.14955,-29.66918 -0.42857,-29.841621 -0.24144,-0.149217 -0.42857,-2.218736 -0.42857,-4.739579 0,-3.691803 -0.11248,-4.474707 -0.64286,-4.474707 -0.36453,0 -0.64286,-0.384353 -0.64286,-0.887755 0,-1.136914 -0.975326,-2.112245 -2.11224,-2.112245 -0.488267,0 -0.887756,-0.258329 -0.887756,-0.574065 0,-0.315736 -0.491215,-0.797879 -1.091593,-1.071428 -1.34742,-0.613925 -8.76555,-0.672143 -8.76555,-0.06879 0,0.235715 -0.385714,0.428572 -0.857142,0.428572 -0.47619,0 -0.857143,0.285714 -0.857143,0.642857 0,0.353571 -0.201622,0.642857 -0.44805,0.642857 -0.780965,0 -2.55195,2.068405 -2.55195,2.980519 0,0.493507 -0.280955,0.876624 -0.642857,0.876624 -0.566036,0 -0.642858,4.068618 -0.642858,34.046134 0,22.23513 -0.148675,34.138025 -0.428571,34.311009 -0.275327,0.170164 -0.428571,7.086074 -0.428571,19.341614 0,20.90448 0.0755,20.30124 -2.540816,20.30124 -0.723982,0 -1.316327,0.19286 -1.316327,0.42857 0,0.23572 -1.157143,-0.72857 -2.571429,-2.14286 -1.414286,-1.41428 -2.571428,-2.76428 -2.571428,-3 0,-0.23571 -0.289286,-0.42857 -0.642858,-0.42857 -0.357141,0 -0.642857,-0.38095 -0.642857,-0.85714 0,-0.47143 -0.192857,-0.85714 -0.428571,-0.85714 -0.235714,0 -0.428572,-0.20663 -0.428572,-0.45919 0,-0.59335 -1.090326,-1.68367 -1.683673,-1.68367 -0.252551,0 -0.459184,-0.38571 -0.459184,-0.85714 0,-0.47143 -0.192857,-0.85715 -0.428571,-0.85715 -0.235714,0 -0.428572,-0.20663 -0.428572,-0.45918 0,-0.59335 -1.090326,-1.68367 -1.683673,-1.68367 -0.252551,0 -0.459184,-0.28929 -0.459184,-0.64286 0,-0.35357 -0.192857,-0.64286 -0.428571,-0.64286 -0.235714,0 -0.428572,-0.31473 -0.428572,-0.69939 0,-0.38467 -0.675,-1.336 -1.5,-2.11408 -0.825,-0.77808 -1.506133,-1.6687 -1.513629,-1.97918 -0.01583,-0.6555 -1.010273,-2.06449 -1.457087,-2.06449 -0.468438,0 -1.529284,-1.16794 -1.529284,-1.68367 0,-0.25256 -0.192857,-0.45919 -0.428571,-0.45919 -0.235714,0 -0.428571,-0.38571 -0.428571,-0.85714 0,-0.47619 -0.285715,-0.85714 -0.642858,-0.85714 -0.353571,0 -0.642857,-0.20663 -0.642857,-0.45919 0,-0.75631 -1.163418,-1.68367 -2.112244,-1.68367 -0.488266,0 -0.887756,-0.19286 -0.887756,-0.42857 0,-0.23572 -0.303061,-0.42857 -0.673469,-0.42857 -0.370408,0 -0.962755,-0.28929 -1.316327,-0.64286 -0.918957,-0.91896 -6.581632,-0.91896 -6.581632,0 0,0.44898 -0.452381,0.64286 -1.5,0.64286 -0.825,0 -1.5,0.19285 -1.5,0.42857 0,0.23571 -0.206633,0.42857 -0.459184,0.42857 -0.593347,0 -1.683673,1.09032 -1.683673,1.68367 0,0.25256 -0.192858,0.45919 -0.428572,0.45919 -0.235714,0 -0.428571,0.36508 -0.428571,0.81129 0,0.44621 -0.289286,0.9223 -0.642857,1.05798 -0.945482,0.36281 -0.945482,7.98787 0,7.98787 0.448979,0 0.642857,0.45238 0.642857,1.5 0,0.825 0.192857,1.5 0.428571,1.5 0.235714,0 0.428572,0.48214 0.428572,1.07143 0,0.58928 0.192857,1.07143 0.428571,1.07143 0.235714,0 0.428571,0.38571 0.428571,0.85714 0,0.47619 0.285715,0.85714 0.642858,0.85714 0.399999,0 0.642857,0.40476 0.642857,1.07143 0,0.58929 0.192857,1.07143 0.428571,1.07143 0.235714,0 0.428572,0.37433 0.428572,0.83185 0,0.45752 0.192857,0.95104 0.428571,1.09672 0.235714,0.14568 0.428571,0.63921 0.428571,1.09672 0,0.45752 0.289286,0.83185 0.642858,0.83185 0.399999,0 0.642857,0.40476 0.642857,1.07143 0,0.58929 0.156861,1.07143 0.34858,1.07143 0.191719,0 0.613429,0.675 0.937134,1.5 0.323705,0.825 0.841844,1.5 1.15142,1.5 0.314676,0 0.562866,0.47244 0.562866,1.07143 0,0.58928 0.192857,1.07143 0.428571,1.07143 0.235714,0 0.428572,0.38571 0.428572,0.85714 0,0.47143 0.192857,0.85714 0.428571,0.85714 0.235714,0 0.428571,0.39177 0.428571,0.87059 0,0.47883 0.289286,0.98161 0.642858,1.11729 0.353571,0.13568 0.642857,0.61176 0.642857,1.05798 0,0.4462 0.192857,0.81129 0.428571,0.81129 0.235714,0 0.428572,0.28928 0.428572,0.64285 0,0.35357 0.192857,0.64286 0.428571,0.64286 0.235714,0 0.428571,0.39177 0.428571,0.87059 0,0.47883 0.289286,0.98161 0.642858,1.11728 0.353571,0.13568 0.642857,0.61177 0.642857,1.05798 0,0.44621 0.192857,0.81129 0.428571,0.81129 0.235714,0 0.428572,0.39949 0.428572,0.88776 0,0.94883 0.927362,2.11224 1.683673,2.11224 0.252551,0 0.459184,0.48215 0.459184,1.07143 0,0.58929 0.192857,1.07143 0.428571,1.07143 0.235714,0 0.428572,0.48214 0.428572,1.07143 0,0.58928 0.192857,1.07143 0.428571,1.07143 0.235714,0 0.428571,0.38571 0.428571,0.85714 0,0.47619 0.285715,0.85714 0.642858,0.85714 0.383396,0 0.642857,0.39425 0.642857,0.97682 0,0.53725 0.385714,1.25482 0.857143,1.59461 0.471428,0.33979 0.857142,1.05736 0.857142,1.59461 0,0.58257 0.259461,0.97682 0.642858,0.97682 0.353571,0 0.642857,0.34935 0.642857,0.77633 0,0.42698 0.385714,1.19035 0.857143,1.69637 0.471428,0.50602 0.857142,1.22343 0.857142,1.59426 0,0.37082 0.289286,0.78524 0.642858,0.92091 0.353571,0.13568 0.642857,0.61177 0.642857,1.05798 0,0.44621 0.192857,0.81129 0.428571,0.81129 0.235714,0 0.428572,0.28929 0.428572,0.64286 0,0.35357 0.192857,0.64286 0.428571,0.64286 0.235714,0 0.428571,0.38571 0.428571,0.85714 0,0.47619 0.285715,0.85714 0.642858,0.85714 0.353571,0 0.642857,0.28929 0.642857,0.64286 0,0.35357 0.192857,0.64286 0.428571,0.64286 0.235714,0 0.428572,0.31538 0.428572,0.70085 0,0.38547 0.482142,1.14769 1.071428,1.69382 0.589286,0.54614 1.071429,1.29147 1.071429,1.65629 0,0.36483 0.192857,0.66332 0.428571,0.66332 0.235714,0 0.428572,0.20663 0.428572,0.45919 0,0.59335 1.090324,1.68367 1.683672,1.68367 0.252553,0 0.459185,0.39448 0.459185,0.87662 0,0.91212 1.770985,2.98052 2.55195,2.98052 0.246428,0 0.44805,0.28929 0.44805,0.64286 0,0.35357 0.192857,0.64286 0.428571,0.64286 0.235714,0 0.428572,0.29724 0.428572,0.66054 0,0.81172 7.432444,8.33946 8.233898,8.33946 0.317284,0 0.854884,0.38571 1.194673,0.85714 0.339789,0.47143 0.864506,0.85714 1.16604,0.85714 0.301534,0 0.548246,0.28929 0.548246,0.64286 0,0.35714 0.380953,0.64286 0.857143,0.64286 0.471428,0 0.857142,0.19285 0.857142,0.42857 0,0.23571 0.289286,0.42857 0.642858,0.42857 0.353571,0 0.642857,0.19286 0.642857,0.42857 0,0.23572 0.365083,0.42857 0.81129,0.42857 0.446211,0 0.922298,0.28929 1.05798,0.64286 0.135677,0.35357 0.638451,0.64286 1.117281,0.64286 0.478826,0 0.870592,0.19285 0.870592,0.42857 0,0.23571 0.47076,0.42857 1.046134,0.42857 0.575374,0 1.165328,0.19286 1.311008,0.42857 0.14568,0.23572 0.811428,0.42857 1.479442,0.42857 0.684257,0 1.322277,0.28069 1.461257,0.64286 0.14421,0.3758 0.78639,0.64286 1.54585,0.64286 0.71454,0 1.29917,0.19285 1.29917,0.42857 0,0.23571 0.86785,0.42857 1.92857,0.42857 1.06071,0 1.92857,0.19286 1.92857,0.42857 0,0.24427 1.27043,0.42857 2.95415,0.42857 2.23055,0 3.01457,0.15746 3.20083,0.64286 0.19646,0.51196 1.11692,0.64286 4.52056,0.64286 2.38695,0 4.39081,0.18921 4.53874,0.42857 0.15915,0.25749 3.06745,0.42857 7.28572,0.42857 4.21826,0 7.12657,-0.17108 7.28571,-0.42857 z"
       id="path34993" />
  </g>
</svg>
