<?xml version="1.0" encoding="UTF-8" standalone="no"?>
<svg
   version="1.1"
   id="Layer_1"
   x="0px"
   y="0px"
   viewBox="0 0 122.88 122.88"
   style="enable-background:new 0 0 122.88 122.88"
   xml:space="preserve"
   sodipodi:docname="number-four1.svg"
   inkscape:version="1.2 (dc2aedaf03, 2022-05-15)"
   xmlns:inkscape="http://www.inkscape.org/namespaces/inkscape"
   xmlns:sodipodi="http://sodipodi.sourceforge.net/DTD/sodipodi-0.dtd"
   xmlns="http://www.w3.org/2000/svg"
   xmlns:svg="http://www.w3.org/2000/svg"><defs
     id="defs9247" /><sodipodi:namedview
     id="namedview9245"
     pagecolor="#ffffff"
     bordercolor="#000000"
     borderopacity="0.25"
     inkscape:showpageshadow="2"
     inkscape:pageopacity="0.0"
     inkscape:pagecheckerboard="0"
     inkscape:deskcolor="#d1d1d1"
     showgrid="false"
     inkscape:zoom="3.0210862"
     inkscape:cx="37.900276"
     inkscape:cy="72.986995"
     inkscape:window-width="1366"
     inkscape:window-height="704"
     inkscape:window-x="-8"
     inkscape:window-y="-8"
     inkscape:window-maximized="1"
     inkscape:current-layer="g9242" /><g
     id="g9242"><path
       d="m 61.44,-1.3240271 c 16.97,0 40.93618,-1.0641627 52.04618,10.0558373 11.12,11.1199998 10.05583,35.4171828 10.05583,52.3771828 0,16.97 1.72618,40.274167 -9.39382,51.384167 -11.12,11.12 -35.417183,11.37986 -52.377183,11.37986 -16.97,0 -41.929197,-0.59091 -53.0391968,-11.71087 -11.12,-11.11 -9.39382376,-33.75215 -9.39382376,-50.72215 0,-16.97 -0.40214914,-41.59819 10.71785056,-52.7081898 C 21.165837,-2.3881898 44.47,-1.3240271 61.44,-1.3240271 Z M 64.9,77.74 H 39.58 V 66.3 L 64.9,36.19 H 77 v 30.78 h 6.3 V 77.74 H 77 v 9.37 H 64.9 Z m 0,-10.78 V 51.16 L 51.53,66.96 Z M 109.68718,12.530803 C 99.627183,2.4708034 76.458993,2.870939 61.108993,2.870939 c -15.35,0 -36.863156,0.261878 -46.923156,10.321878 C 4.1258373,23.252817 4.8569797,46.09 4.8569797,61.44 c 0,15.35 -2.0551695,37.194162 8.0048313,47.25416 10.06,10.06 33.228189,10.32188 48.578189,10.32188 15.35,0 38.8492,-0.26188 48.9092,-10.32188 10.06,-10.059997 8.66684,-30.91114 8.66684,-46.26114 0,-15.35 0.73114,-39.842217 -9.32886,-49.902217 z"
       id="path9240"
       sodipodi:nodetypes="scscscscsccccccccccccccccsssssssss"
       style="fill:#008080" /></g></svg>
