<?xml version="1.0" encoding="UTF-8" standalone="no"?>
<svg
   version="1.1"
   id="Layer_1"
   x="0px"
   y="0px"
   viewBox="0 0 122.88 122.88"
   style="enable-background:new 0 0 122.88 122.88"
   xml:space="preserve"
   sodipodi:docname="number-three1.svg"
   inkscape:version="1.2 (dc2aedaf03, 2022-05-15)"
   xmlns:inkscape="http://www.inkscape.org/namespaces/inkscape"
   xmlns:sodipodi="http://sodipodi.sourceforge.net/DTD/sodipodi-0.dtd"
   xmlns="http://www.w3.org/2000/svg"
   xmlns:svg="http://www.w3.org/2000/svg"><defs
     id="defs9121" /><sodipodi:namedview
     id="namedview9119"
     pagecolor="#ffffff"
     bordercolor="#000000"
     borderopacity="0.25"
     inkscape:showpageshadow="2"
     inkscape:pageopacity="0.0"
     inkscape:pagecheckerboard="0"
     inkscape:deskcolor="#d1d1d1"
     showgrid="false"
     inkscape:zoom="3.0210862"
     inkscape:cx="59.746723"
     inkscape:cy="72.655988"
     inkscape:window-width="1366"
     inkscape:window-height="704"
     inkscape:window-x="-8"
     inkscape:window-y="-8"
     inkscape:window-maximized="1"
     inkscape:current-layer="Layer_1" /><g
     id="g9116"><path
       d="m 62.102014,-2.6480542 c 16.97,0 39.612146,-0.071142 50.722146,11.0488576 11.12,11.1199996 11.37987,35.7481896 11.37987,52.7081896 0,16.97 2.05718,39.943157 -9.06282,51.053157 -11.12,11.12 -36.74121,12.70389 -53.70121,12.70389 -16.97,0 -39.612149,-0.59087 -50.722149,-11.71087 -11.12000012,-11.11 -12.0418781,-35.076177 -12.0418781,-52.046177 0,-16.97 -1.3951695,-40.605169 9.7248305,-51.7151692 11.1099996,-11.12 36.7312106,-12.041878 53.7012106,-12.041878 z M 54.83,51.45 41.95,49.16 c 1.07,-4.1 3.12,-7.24 6.16,-9.43 3.04,-2.18 7.34,-3.28 12.9,-3.28 6.39,0 11,1.19 13.86,3.57 2.84,2.39 4.27,5.39 4.27,9 0,2.11 -0.58,4.03 -1.74,5.74 -1.15,1.71 -2.89,3.22 -5.22,4.51 1.89,0.47 3.34,1.02 4.34,1.64 1.63,1 2.89,2.33 3.79,3.96 0.9,1.64 1.36,3.6 1.36,5.87 0,2.85 -0.74,5.59 -2.24,8.22 -1.5,2.61 -3.64,4.63 -6.45,6.05 -2.81,1.42 -6.5,2.12 -11.07,2.12 -4.45,0 -7.97,-0.53 -10.54,-1.58 -2.58,-1.05 -4.69,-2.58 -6.36,-4.6 -1.66,-2.02 -2.93,-4.57 -3.82,-7.63 L 54.82,71.5 c 0.54,2.75 1.36,4.67 2.49,5.73 1.12,1.06 2.55,1.6 4.29,1.6 1.82,0 3.33,-0.67 4.55,-2.01 1.21,-1.34 1.82,-3.12 1.82,-5.35 0,-2.27 -0.58,-4.03 -1.75,-5.29 -1.16,-1.24 -2.75,-1.87 -4.75,-1.87 -1.06,0 -2.53,0.26 -4.4,0.8 l 0.71,-9.74 c 0.74,0.11 1.32,0.17 1.75,0.17 1.76,0 3.23,-0.57 4.41,-1.7 1.18,-1.13 1.77,-2.47 1.77,-4.02 0,-1.5 -0.45,-2.68 -1.32,-3.56 -0.89,-0.89 -2.11,-1.34 -3.65,-1.34 -1.6,0 -2.89,0.48 -3.89,1.45 -0.99,0.98 -1.67,2.67 -2.02,5.08 z M 107.70114,12.530803 C 97.641142,2.4708034 76.79,2.870939 61.44,2.870939 46.09,2.870939 23.583824,3.7948305 13.523824,13.854831 3.4638238,23.914831 4.5259729,46.09 4.5259729,61.44 c 0,15.35 0.261878,37.856176 10.3218781,47.91618 10.06,10.06 31.242149,9.65986 46.592149,9.65986 15.35,0 39.51121,-0.92389 49.57121,-10.98389 10.06,-10.060001 7.67382,-31.904164 7.67382,-47.254164 0,-15.35 -0.92389,-38.187183 -10.98389,-48.247183 z"
       id="path9114"
       sodipodi:nodetypes="scscscscscccscsccccscsscccccscscsccssscsccsssssssss"
       style="fill:#008080" /></g></svg>
