<?xml version="1.0" encoding="UTF-8" standalone="no"?>
<svg
   version="1.1"
   id="Layer_1"
   x="0px"
   y="0px"
   viewBox="0 0 122.88 122.88"
   style="enable-background:new 0 0 122.88 122.88"
   xml:space="preserve"
   sodipodi:docname="number-two2.svg"
   inkscape:version="1.2 (dc2aedaf03, 2022-05-15)"
   xmlns:inkscape="http://www.inkscape.org/namespaces/inkscape"
   xmlns:sodipodi="http://sodipodi.sourceforge.net/DTD/sodipodi-0.dtd"
   xmlns="http://www.w3.org/2000/svg"
   xmlns:svg="http://www.w3.org/2000/svg"><defs
     id="defs8995" /><sodipodi:namedview
     id="namedview8993"
     pagecolor="#ffffff"
     bordercolor="#000000"
     borderopacity="0.25"
     inkscape:showpageshadow="2"
     inkscape:pageopacity="0.0"
     inkscape:pagecheckerboard="0"
     inkscape:deskcolor="#d1d1d1"
     showgrid="false"
     inkscape:zoom="3.0210862"
     inkscape:cx="41.541351"
     inkscape:cy="72.986995"
     inkscape:window-width="1366"
     inkscape:window-height="704"
     inkscape:window-x="-8"
     inkscape:window-y="-8"
     inkscape:window-maximized="1"
     inkscape:current-layer="Layer_1" /><g
     id="g8990"><path
       d="m 62.232741,-5.2961084 c 18.752799,0 43.773639,0.6670653 56.050809,13.2210136 12.28821,12.5539478 12.2096,37.3684698 12.2096,56.5154988 0,19.158317 -1.3845,40.983306 -13.67272,53.525976 -12.28823,12.55394 -35.48016,15.83684 -54.221907,15.83684 -18.752797,0 -41.213171,-4.40397 -53.4903411,-16.95792 C -3.1800389,104.30264 -5.2961085,83.598721 -5.2961085,64.440404 c 0,-19.158319 0.2871647,-43.972841 12.5753849,-56.5154988 C 19.556447,-4.6290431 43.479944,-5.2961084 62.232741,-5.2961084 Z M 85.484229,92.946445 H 39.712817 c 0.519376,-4.606125 2.121706,-8.95259 4.77384,-13.016818 2.663185,-4.075518 7.635936,-8.873564 14.951407,-14.416719 4.475475,-3.398146 7.33757,-5.960868 8.597334,-7.733323 1.248713,-1.761165 1.878594,-3.432014 1.878594,-5.012546 0,-1.704719 -0.618831,-3.172356 -1.856493,-4.391624 -1.237663,-1.21927 -2.795791,-1.817614 -4.674387,-1.817614 -1.944897,0 -3.536178,0.632214 -4.773841,1.88535 -1.237662,1.264426 -2.066454,3.477173 -2.486376,6.660818 L 40.862074,53.839543 c 0.59673,-4.402914 1.701786,-7.823639 3.293067,-10.284755 1.602331,-2.472405 3.845594,-4.346465 6.74084,-5.66734 2.917347,-1.320873 6.939752,-1.975665 12.078261,-1.975665 5.370572,0 9.536632,0.620923 12.520283,1.885349 2.9726,1.241848 5.326369,3.161067 7.028155,5.746367 1.712836,2.59659 2.563729,5.497997 2.563729,8.704221 0,3.409436 -0.983499,6.672107 -2.939448,9.788015 -1.955949,3.104618 -5.52528,6.525344 -10.69694,10.250886 -3.072056,2.167588 -5.127459,3.691674 -6.155162,4.560967 -1.038752,0.869293 -2.254314,1.998245 -3.657734,3.409435 H 85.462128 V 92.946445 Z M 114.08545,12.587477 C 102.96858,1.2302186 79.561131,-0.18650154 62.598523,-0.18650154 45.635915,-0.18650154 23.691581,1.6039094 12.57472,12.961168 1.4578581,24.318427 1.1684683,47.110988 1.1684683,64.440404 c 0,17.329415 1.0209516,34.890309 12.1378137,46.247566 11.116863,11.35725 32.329633,16.51089 49.292241,16.51089 16.962608,0 38.906937,-2.91149 50.023797,-14.26876 11.11686,-11.35725 12.13781,-30.78659 12.13781,-48.116005 0,-17.329416 0.44218,-40.869359 -10.67468,-52.226618 z"
       id="path8988"
       sodipodi:nodetypes="scscscscscccccssscccccsccscccccccsssssssss"
       style="fill:#008080;stroke-width:1.11693" /></g></svg>
